<?xml version="1.0" standalone="no"?>
<!DOCTYPE svg PUBLIC "-//W3C//DTD SVG 20010904//EN"
 "http://www.w3.org/TR/2001/REC-SVG-20010904/DTD/svg10.dtd">
<svg version="1.0" xmlns="http://www.w3.org/2000/svg"
 width="70.000000pt" height="70.000000pt" viewBox="0 0 70.000000 70.000000"
 preserveAspectRatio="xMidYMid meet">
<metadata>
Created by potrace 1.14, written by Peter Selinger 2001-2017
</metadata>
<g transform="translate(0.000000,70.000000) scale(0.100000,-0.100000)"
fill="#000000" stroke="none">
<path d="M175 590 c-11 -4 -31 -20 -45 -35 -23 -25 -25 -33 -25 -133 0 -187
48 -302 127 -302 38 0 73 27 90 68 l10 27 10 -25 c27 -70 102 -94 147 -46 33
35 60 116 71 218 11 95 8 134 -16 180 -28 55 -110 74 -179 41 -33 -16 -37 -16
-70 0 -38 18 -87 21 -120 7z m105 -70 c50 -20 50 -20 101 0 87 35 119 11 119
-88 0 -121 -41 -260 -73 -249 -6 2 -21 27 -32 57 -25 64 -55 81 -94 52 -14
-10 -29 -34 -34 -53 -9 -36 -24 -59 -38 -59 -27 0 -68 158 -69 263 0 38 5 53
25 72 29 30 31 30 95 5z"/>
</g>
</svg>
